<?xml version="1.0" encoding="utf-8"?>
<!-- Generator: Adobe Illustrator 16.0.0, SVG Export Plug-In . SVG Version: 6.00 Build 0)  -->
<!DOCTYPE svg PUBLIC "-//W3C//DTD SVG 1.1//EN" "http://www.w3.org/Graphics/SVG/1.1/DTD/svg11.dtd">
<svg version="1.1" id="Capa_1" xmlns="http://www.w3.org/2000/svg" xmlns:xlink="http://www.w3.org/1999/xlink" x="0px" y="0px"
	 width="344px" height="136px" viewBox="0 0 344 136" enable-background="new 0 0 344 136" xml:space="preserve">
<g>
	<g>
		<path fill="#ffffff" d="M141.027,95.719V16.79h11.855v78.929H141.027z"/>
		<path fill="#ffffff" d="M165.031,95.719V27.251h11.855v68.468H165.031z"/>
		<path fill="#ffffff" d="M214.982,79.933l11.813,2.195c-1.519,4.795-3.916,8.445-7.192,10.952
			c-3.277,2.506-7.376,3.759-12.298,3.759c-7.791,0-13.557-2.817-17.297-8.453c-2.953-4.515-4.43-10.212-4.43-17.093
			c0-8.22,1.94-14.657,5.822-19.313c3.881-4.654,8.788-6.981,14.723-6.981c6.666,0,11.925,2.436,15.778,7.309
			s5.695,12.338,5.526,22.395h-29.699c0.084,3.892,1.04,6.92,2.868,9.084c1.828,2.163,4.106,3.245,6.835,3.245
			c1.855,0,3.417-0.561,4.683-1.681C213.379,84.229,214.335,82.424,214.982,79.933z M215.657,66.669
			c-0.085-3.799-0.971-6.687-2.658-8.663c-1.688-1.978-3.741-2.966-6.159-2.966c-2.588,0-4.726,1.043-6.413,3.129
			s-2.517,4.919-2.488,8.5H215.657z"/>
		<path fill="#F6F6F6" d="M231.899,46.119h6.581v-3.736c0-4.172,0.4-7.285,1.202-9.34c0.802-2.056,2.278-3.729,4.43-5.021
			c2.151-1.292,4.873-1.938,8.163-1.938c3.375,0,6.68,0.561,9.914,1.682l-1.603,9.153c-1.885-0.498-3.699-0.747-5.442-0.747
			c-1.716,0-2.946,0.443-3.691,1.331s-1.118,2.592-1.118,5.114v3.502h8.859v10.322h-8.859v39.277H238.48V56.441h-6.581V46.119z"/>
		<path fill="#F6F6F6" d="M265.86,39.395V27.251h11.855v12.144H265.86z M265.86,95.719v-49.6h11.855v49.6H265.86z"/>
		<path fill="#F6F6F6" d="M298.724,61.251l-10.758-2.147c1.209-4.795,3.291-8.345,6.244-10.648
			c2.953-2.305,7.341-3.456,13.162-3.456c5.288,0,9.225,0.692,11.813,2.078s4.409,3.145,5.464,5.277s1.582,6.048,1.582,11.746
			l-0.127,15.318c0,4.359,0.19,7.573,0.569,9.645c0.38,2.07,1.09,4.289,2.131,6.655h-11.729c-0.31-0.872-0.689-2.164-1.139-3.877
			c-0.197-0.778-0.338-1.292-0.422-1.541c-2.025,2.18-4.191,3.814-6.497,4.904c-2.307,1.09-4.767,1.634-7.383,1.634
			c-4.612,0-8.247-1.385-10.905-4.156c-2.658-2.771-3.986-6.273-3.986-10.508c0-2.803,0.604-5.301,1.813-7.496
			s2.904-3.877,5.084-5.044c2.179-1.168,5.322-2.188,9.429-3.06c5.54-1.151,9.38-2.226,11.518-3.222v-1.309
			c0-2.521-0.563-4.319-1.688-5.394c-1.126-1.074-3.249-1.611-6.371-1.611c-2.109,0-3.754,0.459-4.936,1.378
			C300.411,57.336,299.455,58.947,298.724,61.251z M313.743,40.048h-7.468l-11.644-13.964h13.289L313.743,40.048z M314.587,71.899
			c-1.52,0.561-3.924,1.23-7.215,2.009c-3.29,0.778-5.441,1.541-6.454,2.288c-1.547,1.215-2.32,2.756-2.32,4.624
			c0,1.837,0.618,3.425,1.856,4.764c1.237,1.339,2.812,2.008,4.725,2.008c2.137,0,4.177-0.778,6.117-2.335
			c1.435-1.183,2.376-2.631,2.826-4.344c0.31-1.12,0.465-3.253,0.465-6.397V71.899z"/>
	</g>
	<g>
		<path fill="#ffffff" stroke="#" stroke-miterlimit="10" d="M16.124,95.719V17.267h48.582v13.271H30.433v18.569h29.584v13.271
			H30.433v33.34H16.124z"/>
		<path fill="#ffffff" stroke="#333333" stroke-miterlimit="10" d="M76.501,95.719V17.267h22.961c8.701,0,14.373,0.394,17.016,1.178
			c4.061,1.177,7.46,3.737,10.199,7.679c2.739,3.942,4.109,9.036,4.109,15.278c0,4.816-0.79,8.866-2.369,12.147
			c-1.579,3.283-3.585,5.859-6.018,7.733c-2.434,1.872-4.906,3.113-7.42,3.719c-3.417,0.749-8.363,1.124-14.841,1.124H90.81v29.594
			H76.501z M90.81,30.538V52.8h7.83c5.64,0,9.41-0.409,11.313-1.23c1.9-0.82,3.391-2.104,4.471-3.854
			c1.079-1.747,1.619-3.78,1.619-6.101c0-2.854-0.757-5.208-2.271-7.063c-1.516-1.854-3.432-3.015-5.752-3.479
			c-1.709-0.356-5.142-0.535-10.297-0.535H90.81z"/>
	</g>
	<g>
		<path fill="#FFFFFF" d="M25.304,118.294l2.261,0.291c-0.356,1.374-1.017,2.44-1.981,3.2c-0.964,0.759-2.196,1.138-3.695,1.138
			c-1.889,0-3.386-0.604-4.492-1.815c-1.106-1.209-1.66-2.906-1.66-5.091c0-2.26,0.559-4.014,1.678-5.262
			c1.118-1.248,2.569-1.872,4.352-1.872c1.726,0,3.136,0.611,4.23,1.834c1.094,1.224,1.641,2.943,1.641,5.161
			c0,0.135-0.004,0.337-0.012,0.606h-9.628c0.081,1.477,0.482,2.606,1.204,3.391c0.721,0.784,1.621,1.176,2.698,1.176
			c0.803,0,1.487-0.219,2.055-0.657C24.522,119.954,24.972,119.255,25.304,118.294z M18.12,114.613h7.208
			c-0.097-1.13-0.373-1.978-0.827-2.543c-0.697-0.877-1.601-1.315-2.711-1.315c-1.005,0-1.85,0.351-2.534,1.05
			C18.572,112.504,18.193,113.44,18.12,114.613z"/>
		<path fill="#FFFFFF" d="M30.313,122.619v-13.433h1.969v1.91c0.948-1.477,2.318-2.214,4.109-2.214c0.778,0,1.493,0.146,2.146,0.436
			c0.652,0.292,1.141,0.674,1.465,1.146s0.551,1.033,0.681,1.683c0.081,0.421,0.122,1.159,0.122,2.213v8.26h-2.188v-8.171
			c0-0.927-0.085-1.621-0.255-2.08c-0.17-0.46-0.472-0.827-0.906-1.102c-0.434-0.273-0.942-0.41-1.525-0.41
			c-0.932,0-1.736,0.308-2.413,0.923c-0.677,0.616-1.015,1.783-1.015,3.504v7.336H30.313z"/>
		<path fill="#FFFFFF" d="M43.283,118.609l2.164-0.354c0.122,0.901,0.46,1.594,1.015,2.074c0.555,0.48,1.331,0.721,2.328,0.721
			c1.005,0,1.75-0.213,2.237-0.638c0.486-0.427,0.729-0.927,0.729-1.5c0-0.515-0.215-0.919-0.644-1.214
			c-0.3-0.202-1.046-0.459-2.237-0.771c-1.605-0.422-2.717-0.786-3.337-1.094c-0.62-0.309-1.09-0.733-1.41-1.278
			c-0.32-0.543-0.48-1.145-0.48-1.802c0-0.599,0.132-1.153,0.395-1.664c0.264-0.51,0.622-0.934,1.076-1.271
			c0.34-0.262,0.804-0.483,1.392-0.664c0.588-0.182,1.218-0.272,1.891-0.272c1.013,0,1.902,0.152,2.668,0.455
			c0.766,0.304,1.331,0.715,1.696,1.234c0.365,0.518,0.616,1.211,0.754,2.08l-2.14,0.304c-0.097-0.692-0.379-1.231-0.845-1.619
			c-0.466-0.389-1.125-0.582-1.976-0.582c-1.005,0-1.722,0.173-2.151,0.519c-0.43,0.346-0.645,0.75-0.645,1.215
			c0,0.294,0.089,0.56,0.268,0.797c0.178,0.244,0.458,0.446,0.839,0.606c0.219,0.085,0.863,0.278,1.933,0.582
			c1.548,0.43,2.628,0.782,3.24,1.057c0.612,0.273,1.092,0.673,1.44,1.195s0.523,1.172,0.523,1.947c0,0.759-0.213,1.474-0.638,2.145
			c-0.426,0.67-1.04,1.189-1.842,1.555c-0.802,0.368-1.71,0.551-2.723,0.551c-1.677,0-2.956-0.362-3.835-1.088
			C44.087,121.11,43.526,120.035,43.283,118.609z"/>
		<path fill="#FFFFFF" d="M65.444,118.294l2.261,0.291c-0.356,1.374-1.017,2.44-1.981,3.2c-0.964,0.759-2.196,1.138-3.695,1.138
			c-1.889,0-3.386-0.604-4.492-1.815c-1.106-1.209-1.66-2.906-1.66-5.091c0-2.26,0.559-4.014,1.678-5.262
			c1.118-1.248,2.569-1.872,4.352-1.872c1.726,0,3.136,0.611,4.23,1.834c1.094,1.224,1.641,2.943,1.641,5.161
			c0,0.135-0.004,0.337-0.012,0.606h-9.628c0.081,1.477,0.482,2.606,1.204,3.391c0.721,0.784,1.621,1.176,2.698,1.176
			c0.803,0,1.487-0.219,2.055-0.657C64.662,119.954,65.112,119.255,65.444,118.294z M58.26,114.613h7.208
			c-0.097-1.13-0.373-1.978-0.827-2.543c-0.697-0.877-1.601-1.315-2.711-1.315c-1.005,0-1.85,0.351-2.534,1.05
			C58.712,112.504,58.333,113.44,58.26,114.613z"/>
		<path fill="#FFFFFF" d="M70.452,122.619v-13.433h1.969v1.91c0.948-1.477,2.318-2.214,4.109-2.214c0.778,0,1.493,0.146,2.146,0.436
			c0.652,0.292,1.141,0.674,1.465,1.146s0.551,1.033,0.681,1.683c0.081,0.421,0.122,1.159,0.122,2.213v8.26h-2.188v-8.171
			c0-0.927-0.085-1.621-0.255-2.08c-0.17-0.46-0.472-0.827-0.906-1.102c-0.434-0.273-0.942-0.41-1.525-0.41
			c-0.932,0-1.736,0.308-2.413,0.923c-0.677,0.616-1.015,1.783-1.015,3.504v7.336H70.452z"/>
		<path fill="#FFFFFF" d="M84.201,127.793l-0.243-2.138c0.478,0.135,0.896,0.202,1.252,0.202c0.486,0,0.875-0.084,1.167-0.253
			c0.292-0.168,0.531-0.404,0.717-0.708c0.138-0.228,0.36-0.793,0.668-1.695c0.041-0.126,0.105-0.313,0.195-0.557l-4.899-13.458
			h2.358l2.687,7.779c0.349,0.986,0.661,2.023,0.936,3.111c0.251-1.046,0.551-2.065,0.9-3.062l2.759-7.829h2.188l-4.911,13.661
			c-0.527,1.476-0.936,2.491-1.228,3.048c-0.389,0.75-0.835,1.301-1.337,1.651c-0.502,0.35-1.102,0.524-1.799,0.524
			C85.19,128.071,84.72,127.979,84.201,127.793z"/>
		<path fill="#FFFFFF" d="M105.171,120.963c-0.811,0.717-1.591,1.223-2.34,1.518s-1.554,0.442-2.413,0.442
			c-1.418,0-2.509-0.359-3.27-1.082c-0.762-0.72-1.143-1.642-1.143-2.763c0-0.658,0.144-1.26,0.432-1.803
			c0.288-0.544,0.665-0.98,1.13-1.31c0.466-0.328,0.991-0.577,1.574-0.746c0.43-0.117,1.078-0.231,1.945-0.341
			c1.767-0.22,3.067-0.481,3.902-0.785c0.008-0.312,0.012-0.51,0.012-0.594c0-0.928-0.207-1.581-0.62-1.961
			c-0.56-0.515-1.39-0.771-2.492-0.771c-1.029,0-1.789,0.188-2.279,0.563c-0.49,0.374-0.853,1.039-1.088,1.991l-2.14-0.303
			c0.194-0.953,0.515-1.723,0.96-2.31c0.445-0.586,1.09-1.037,1.933-1.353c0.843-0.316,1.819-0.475,2.93-0.475
			c1.102,0,1.998,0.136,2.687,0.405s1.195,0.608,1.52,1.018s0.551,0.926,0.681,1.55c0.073,0.388,0.109,1.088,0.109,2.1v3.036
			c0,2.116,0.046,3.455,0.14,4.015c0.093,0.562,0.277,1.099,0.553,1.613h-2.286C105.381,122.147,105.236,121.595,105.171,120.963z
			 M104.988,115.878c-0.794,0.337-1.985,0.623-3.574,0.86c-0.899,0.135-1.536,0.286-1.909,0.455
			c-0.373,0.168-0.661,0.415-0.863,0.74c-0.203,0.324-0.304,0.685-0.304,1.081c0,0.607,0.221,1.113,0.663,1.518
			c0.442,0.405,1.088,0.607,1.939,0.607c0.843,0,1.592-0.191,2.249-0.575c0.656-0.384,1.139-0.908,1.446-1.575
			c0.235-0.515,0.353-1.273,0.353-2.276V115.878z"/>
		<path fill="#FFFFFF" d="M110.593,122.619v-13.433h1.957v1.885c0.405-0.658,0.944-1.188,1.617-1.587
			c0.673-0.401,1.438-0.602,2.298-0.602c0.956,0,1.74,0.206,2.352,0.62c0.612,0.413,1.043,0.99,1.295,1.732
			c1.021-1.568,2.35-2.353,3.987-2.353c1.281,0,2.265,0.369,2.954,1.107c0.689,0.737,1.033,1.874,1.033,3.408v9.221h-2.176v-8.462
			c0-0.91-0.071-1.566-0.213-1.966c-0.142-0.401-0.399-0.725-0.772-0.969c-0.373-0.244-0.81-0.366-1.313-0.366
			c-0.908,0-1.662,0.313-2.261,0.941c-0.6,0.629-0.899,1.635-0.899,3.018v7.804h-2.188v-8.728c0-1.012-0.178-1.771-0.535-2.276
			c-0.357-0.506-0.94-0.759-1.75-0.759c-0.616,0-1.185,0.168-1.708,0.506c-0.523,0.337-0.902,0.831-1.137,1.479
			c-0.235,0.649-0.353,1.585-0.353,2.809v6.969H110.593z"/>
		<path fill="#FFFFFF" d="M140.168,118.294l2.261,0.291c-0.356,1.374-1.017,2.44-1.981,3.2c-0.964,0.759-2.196,1.138-3.695,1.138
			c-1.889,0-3.386-0.604-4.492-1.815c-1.106-1.209-1.66-2.906-1.66-5.091c0-2.26,0.559-4.014,1.678-5.262
			c1.118-1.248,2.569-1.872,4.352-1.872c1.726,0,3.136,0.611,4.23,1.834c1.094,1.224,1.641,2.943,1.641,5.161
			c0,0.135-0.004,0.337-0.012,0.606h-9.628c0.081,1.477,0.482,2.606,1.204,3.391c0.721,0.784,1.621,1.176,2.698,1.176
			c0.803,0,1.487-0.219,2.055-0.657C139.386,119.954,139.836,119.255,140.168,118.294z M132.984,114.613h7.208
			c-0.097-1.13-0.373-1.978-0.827-2.543c-0.697-0.877-1.601-1.315-2.711-1.315c-1.005,0-1.85,0.351-2.534,1.05
			C133.436,112.504,133.057,113.44,132.984,114.613z"/>
		<path fill="#FFFFFF" d="M145.177,122.619v-13.433h1.969v1.91c0.948-1.477,2.318-2.214,4.109-2.214
			c0.778,0,1.493,0.146,2.146,0.436c0.652,0.292,1.141,0.674,1.465,1.146s0.551,1.033,0.681,1.683
			c0.081,0.421,0.122,1.159,0.122,2.213v8.26h-2.188v-8.171c0-0.927-0.085-1.621-0.255-2.08c-0.17-0.46-0.472-0.827-0.906-1.102
			c-0.434-0.273-0.942-0.41-1.525-0.41c-0.932,0-1.736,0.308-2.413,0.923c-0.677,0.616-1.015,1.783-1.015,3.504v7.336H145.177z"/>
		<path fill="#FFFFFF" d="M163.801,120.583l0.316,2.011c-0.616,0.136-1.167,0.203-1.653,0.203c-0.794,0-1.41-0.131-1.848-0.393
			c-0.438-0.262-0.746-0.605-0.924-1.03c-0.178-0.426-0.267-1.322-0.267-2.688v-7.729h-1.605v-1.771h1.605v-3.327l2.176-1.365v4.692
			h2.2v1.771h-2.2v7.855c0,0.648,0.039,1.066,0.115,1.252c0.077,0.186,0.203,0.333,0.377,0.442c0.174,0.11,0.423,0.165,0.748,0.165
			C163.083,120.672,163.404,120.643,163.801,120.583z"/>
		<path fill="#FFFFFF" d="M165.064,118.609l2.164-0.354c0.122,0.901,0.46,1.594,1.015,2.074c0.555,0.48,1.331,0.721,2.328,0.721
			c1.005,0,1.75-0.213,2.237-0.638c0.486-0.427,0.729-0.927,0.729-1.5c0-0.515-0.215-0.919-0.645-1.214
			c-0.3-0.202-1.045-0.459-2.236-0.771c-1.605-0.422-2.717-0.786-3.337-1.094c-0.62-0.309-1.09-0.733-1.41-1.278
			c-0.32-0.543-0.48-1.145-0.48-1.802c0-0.599,0.132-1.153,0.395-1.664c0.264-0.51,0.622-0.934,1.076-1.271
			c0.34-0.262,0.804-0.483,1.392-0.664c0.588-0.182,1.218-0.272,1.891-0.272c1.013,0,1.902,0.152,2.667,0.455
			c0.767,0.304,1.332,0.715,1.696,1.234c0.364,0.518,0.616,1.211,0.754,2.08l-2.14,0.304c-0.098-0.692-0.379-1.231-0.845-1.619
			c-0.466-0.389-1.125-0.582-1.976-0.582c-1.005,0-1.722,0.173-2.151,0.519c-0.43,0.346-0.645,0.75-0.645,1.215
			c0,0.294,0.089,0.56,0.268,0.797c0.178,0.244,0.458,0.446,0.839,0.606c0.219,0.085,0.863,0.278,1.933,0.582
			c1.548,0.43,2.628,0.782,3.239,1.057c0.612,0.273,1.092,0.673,1.441,1.195c0.348,0.522,0.522,1.172,0.522,1.947
			c0,0.759-0.213,1.474-0.638,2.145c-0.426,0.67-1.04,1.189-1.842,1.555c-0.803,0.368-1.71,0.551-2.724,0.551
			c-1.677,0-2.956-0.362-3.835-1.088C165.868,121.11,165.307,120.035,165.064,118.609z"/>
		<path fill="#FFFFFF" d="M185.305,127.768v-18.581h1.994v1.745c0.469-0.683,1-1.194,1.592-1.537
			c0.592-0.341,1.309-0.512,2.152-0.512c1.102,0,2.074,0.295,2.917,0.886s1.479,1.422,1.909,2.498
			c0.429,1.074,0.644,2.254,0.644,3.535c0,1.375-0.237,2.612-0.711,3.712c-0.474,1.102-1.163,1.944-2.067,2.53
			c-0.902,0.586-1.854,0.879-2.85,0.879c-0.73,0-1.385-0.16-1.963-0.48c-0.58-0.32-1.057-0.725-1.43-1.214v6.539H185.305z
			 M187.286,115.979c0,1.729,0.337,3.007,1.009,3.833c0.673,0.826,1.487,1.239,2.443,1.239c0.973,0,1.806-0.428,2.498-1.284
			c0.693-0.855,1.039-2.182,1.039-3.978c0-1.711-0.338-2.994-1.015-3.845c-0.677-0.852-1.485-1.278-2.425-1.278
			c-0.932,0-1.757,0.454-2.475,1.359C187.645,112.933,187.286,114.25,187.286,115.979z"/>
		<path fill="#FFFFFF" d="M199.126,122.619v-13.433h1.97v2.036c0.502-0.952,0.967-1.581,1.392-1.885
			c0.425-0.303,0.894-0.455,1.403-0.455c0.738,0,1.488,0.244,2.25,0.733l-0.754,2.112c-0.535-0.328-1.07-0.493-1.605-0.493
			c-0.478,0-0.907,0.15-1.288,0.45c-0.381,0.298-0.652,0.714-0.814,1.245c-0.243,0.81-0.364,1.694-0.364,2.656v7.032H199.126z"/>
		<path fill="#FFFFFF" d="M206.627,115.903c0-2.488,0.664-4.33,1.993-5.528c1.11-0.995,2.464-1.492,4.06-1.492
			c1.775,0,3.227,0.605,4.353,1.815s1.689,2.881,1.689,5.015c0,1.729-0.249,3.089-0.747,4.079c-0.498,0.991-1.225,1.761-2.176,2.309
			c-0.953,0.548-1.992,0.822-3.119,0.822c-1.807,0-3.268-0.603-4.382-1.809C207.184,119.909,206.627,118.171,206.627,115.903z
			 M208.875,115.903c0,1.72,0.361,3.008,1.082,3.863c0.721,0.856,1.629,1.284,2.723,1.284c1.086,0,1.99-0.43,2.711-1.29
			c0.722-0.86,1.082-2.172,1.082-3.934c0-1.661-0.362-2.92-1.088-3.776c-0.725-0.855-1.627-1.283-2.705-1.283
			c-1.094,0-2.002,0.426-2.723,1.277S208.875,114.183,208.875,115.903z"/>
		<path fill="#FFFFFF" d="M221.81,122.619v-11.662h-1.933v-1.771h1.933v-1.43c0-0.901,0.077-1.572,0.231-2.011
			c0.211-0.591,0.581-1.068,1.112-1.437c0.53-0.365,1.274-0.55,2.23-0.55c0.616,0,1.296,0.076,2.042,0.229l-0.328,1.985
			c-0.453-0.085-0.883-0.126-1.289-0.126c-0.664,0-1.135,0.147-1.41,0.442s-0.412,0.848-0.412,1.657v1.239h2.516v1.771h-2.516
			v11.662H221.81z"/>
		<path fill="#FFFFFF" d="M237.041,118.294l2.262,0.291c-0.356,1.374-1.018,2.44-1.981,3.2c-0.964,0.759-2.196,1.138-3.695,1.138
			c-1.889,0-3.386-0.604-4.491-1.815c-1.107-1.209-1.66-2.906-1.66-5.091c0-2.26,0.559-4.014,1.678-5.262
			c1.118-1.248,2.568-1.872,4.352-1.872c1.727,0,3.137,0.611,4.23,1.834c1.094,1.224,1.641,2.943,1.641,5.161
			c0,0.135-0.004,0.337-0.012,0.606h-9.627c0.08,1.477,0.481,2.606,1.203,3.391c0.721,0.784,1.621,1.176,2.698,1.176
			c0.803,0,1.487-0.219,2.055-0.657C236.26,119.954,236.709,119.255,237.041,118.294z M229.858,114.613h7.209
			c-0.098-1.13-0.373-1.978-0.827-2.543c-0.696-0.877-1.601-1.315-2.711-1.315c-1.005,0-1.85,0.351-2.534,1.05
			C230.309,112.504,229.93,113.44,229.858,114.613z"/>
		<path fill="#FFFFFF" d="M241.174,118.609l2.164-0.354c0.122,0.901,0.461,1.594,1.016,2.074s1.331,0.721,2.328,0.721
			c1.004,0,1.75-0.213,2.236-0.638c0.486-0.427,0.729-0.927,0.729-1.5c0-0.515-0.215-0.919-0.644-1.214
			c-0.301-0.202-1.047-0.459-2.237-0.771c-1.604-0.422-2.718-0.786-3.337-1.094c-0.62-0.309-1.09-0.733-1.41-1.278
			c-0.32-0.543-0.48-1.145-0.48-1.802c0-0.599,0.132-1.153,0.395-1.664c0.264-0.51,0.623-0.934,1.076-1.271
			c0.341-0.262,0.805-0.483,1.393-0.664c0.588-0.182,1.217-0.272,1.891-0.272c1.012,0,1.902,0.152,2.668,0.455
			c0.766,0.304,1.33,0.715,1.695,1.234c0.365,0.518,0.616,1.211,0.754,2.08l-2.14,0.304c-0.097-0.692-0.379-1.231-0.845-1.619
			c-0.467-0.389-1.125-0.582-1.976-0.582c-1.005,0-1.722,0.173-2.151,0.519s-0.645,0.75-0.645,1.215c0,0.294,0.09,0.56,0.268,0.797
			c0.178,0.244,0.457,0.446,0.839,0.606c0.219,0.085,0.862,0.278,1.933,0.582c1.548,0.43,2.628,0.782,3.24,1.057
			c0.611,0.273,1.092,0.673,1.439,1.195c0.35,0.522,0.523,1.172,0.523,1.947c0,0.759-0.213,1.474-0.639,2.145
			c-0.426,0.67-1.039,1.189-1.842,1.555c-0.802,0.368-1.709,0.551-2.723,0.551c-1.678,0-2.956-0.362-3.835-1.088
			C241.979,121.11,241.418,120.035,241.174,118.609z"/>
		<path fill="#FFFFFF" d="M253.623,118.609l2.164-0.354c0.121,0.901,0.459,1.594,1.015,2.074c0.555,0.48,1.331,0.721,2.327,0.721
			c1.006,0,1.751-0.213,2.237-0.638c0.486-0.427,0.729-0.927,0.729-1.5c0-0.515-0.215-0.919-0.645-1.214
			c-0.3-0.202-1.045-0.459-2.236-0.771c-1.605-0.422-2.717-0.786-3.337-1.094c-0.62-0.309-1.091-0.733-1.41-1.278
			c-0.32-0.543-0.48-1.145-0.48-1.802c0-0.599,0.132-1.153,0.396-1.664c0.264-0.51,0.621-0.934,1.076-1.271
			c0.34-0.262,0.804-0.483,1.391-0.664c0.588-0.182,1.219-0.272,1.891-0.272c1.014,0,1.902,0.152,2.668,0.455
			c0.767,0.304,1.332,0.715,1.696,1.234c0.364,0.518,0.616,1.211,0.754,2.08l-2.14,0.304c-0.098-0.692-0.379-1.231-0.845-1.619
			c-0.466-0.389-1.124-0.582-1.976-0.582c-1.005,0-1.723,0.173-2.151,0.519c-0.43,0.346-0.645,0.75-0.645,1.215
			c0,0.294,0.089,0.56,0.268,0.797c0.179,0.244,0.458,0.446,0.839,0.606c0.219,0.085,0.863,0.278,1.933,0.582
			c1.548,0.43,2.628,0.782,3.239,1.057c0.612,0.273,1.092,0.673,1.441,1.195c0.348,0.522,0.522,1.172,0.522,1.947
			c0,0.759-0.213,1.474-0.638,2.145c-0.426,0.67-1.04,1.189-1.842,1.555c-0.803,0.368-1.711,0.551-2.724,0.551
			c-1.677,0-2.956-0.362-3.835-1.088C254.427,121.11,253.865,120.035,253.623,118.609z"/>
		<path fill="#FFFFFF" d="M266.959,106.694v-2.618h2.188v2.618H266.959z M266.959,122.619v-13.433h2.188v13.433H266.959z"/>
		<path fill="#FFFFFF" d="M271.662,115.903c0-2.488,0.665-4.33,1.994-5.528c1.11-0.995,2.463-1.492,4.061-1.492
			c1.774,0,3.225,0.605,4.352,1.815s1.689,2.881,1.689,5.015c0,1.729-0.249,3.089-0.748,4.079c-0.498,0.991-1.223,1.761-2.176,2.309
			c-0.951,0.548-1.991,0.822-3.117,0.822c-1.808,0-3.269-0.603-4.383-1.809C272.22,119.909,271.662,118.171,271.662,115.903z
			 M273.912,115.903c0,1.72,0.359,3.008,1.081,3.863c0.722,0.856,1.63,1.284,2.724,1.284c1.086,0,1.989-0.43,2.711-1.29
			c0.721-0.86,1.082-2.172,1.082-3.934c0-1.661-0.363-2.92-1.088-3.776c-0.727-0.855-1.628-1.283-2.705-1.283
			c-1.094,0-2.002,0.426-2.724,1.277S273.912,114.183,273.912,115.903z"/>
		<path fill="#FFFFFF" d="M286.323,122.619v-13.433h1.97v1.91c0.947-1.477,2.317-2.214,4.108-2.214c0.778,0,1.493,0.146,2.146,0.436
			c0.652,0.292,1.141,0.674,1.465,1.146s0.551,1.033,0.681,1.683c0.081,0.421,0.122,1.159,0.122,2.213v8.26h-2.188v-8.171
			c0-0.927-0.085-1.621-0.255-2.08c-0.17-0.46-0.473-0.827-0.906-1.102c-0.434-0.273-0.941-0.41-1.525-0.41
			c-0.932,0-1.736,0.308-2.413,0.923c-0.677,0.616-1.015,1.783-1.015,3.504v7.336H286.323z"/>
		<path fill="#FFFFFF" d="M308.594,120.963c-0.811,0.717-1.592,1.223-2.341,1.518s-1.554,0.442-2.413,0.442
			c-1.418,0-2.508-0.359-3.27-1.082c-0.762-0.72-1.143-1.642-1.143-2.763c0-0.658,0.144-1.26,0.432-1.803
			c0.287-0.544,0.664-0.98,1.13-1.31c0.466-0.328,0.991-0.577,1.574-0.746c0.43-0.117,1.078-0.231,1.945-0.341
			c1.767-0.22,3.067-0.481,3.901-0.785c0.009-0.312,0.013-0.51,0.013-0.594c0-0.928-0.206-1.581-0.62-1.961
			c-0.559-0.515-1.39-0.771-2.492-0.771c-1.029,0-1.789,0.188-2.279,0.563c-0.49,0.374-0.853,1.039-1.088,1.991l-2.139-0.303
			c0.193-0.953,0.514-1.723,0.96-2.31c0.445-0.586,1.09-1.037,1.933-1.353c0.843-0.316,1.819-0.475,2.93-0.475
			c1.102,0,1.998,0.136,2.687,0.405s1.195,0.608,1.52,1.018s0.552,0.926,0.681,1.55c0.073,0.388,0.109,1.088,0.109,2.1v3.036
			c0,2.116,0.047,3.455,0.141,4.015c0.092,0.562,0.277,1.099,0.553,1.613h-2.285C308.804,122.147,308.658,121.595,308.594,120.963z
			 M308.41,115.878c-0.793,0.337-1.984,0.623-3.573,0.86c-0.899,0.135-1.536,0.286-1.909,0.455c-0.372,0.168-0.66,0.415-0.862,0.74
			c-0.202,0.324-0.304,0.685-0.304,1.081c0,0.607,0.221,1.113,0.662,1.518c0.441,0.405,1.088,0.607,1.939,0.607
			c0.842,0,1.592-0.191,2.248-0.575s1.139-0.908,1.447-1.575c0.234-0.515,0.352-1.273,0.352-2.276V115.878z"/>
		<path fill="#FFFFFF" d="M313.967,122.619v-18.543h2.188v18.543H313.967z"/>
		<path fill="#FFFFFF" d="M318.671,118.609l2.164-0.354c0.122,0.901,0.46,1.594,1.015,2.074s1.332,0.721,2.328,0.721
			c1.005,0,1.75-0.213,2.236-0.638c0.486-0.427,0.73-0.927,0.73-1.5c0-0.515-0.215-0.919-0.645-1.214
			c-0.301-0.202-1.046-0.459-2.236-0.771c-1.605-0.422-2.718-0.786-3.338-1.094c-0.619-0.309-1.09-0.733-1.41-1.278
			c-0.32-0.543-0.48-1.145-0.48-1.802c0-0.599,0.133-1.153,0.396-1.664c0.264-0.51,0.622-0.934,1.076-1.271
			c0.341-0.262,0.804-0.483,1.392-0.664c0.588-0.182,1.218-0.272,1.891-0.272c1.013,0,1.902,0.152,2.668,0.455
			c0.766,0.304,1.331,0.715,1.695,1.234c0.365,0.518,0.617,1.211,0.754,2.08l-2.139,0.304c-0.098-0.692-0.379-1.231-0.846-1.619
			c-0.466-0.389-1.124-0.582-1.975-0.582c-1.006,0-1.723,0.173-2.152,0.519s-0.645,0.75-0.645,1.215c0,0.294,0.09,0.56,0.268,0.797
			c0.179,0.244,0.458,0.446,0.84,0.606c0.219,0.085,0.862,0.278,1.932,0.582c1.549,0.43,2.629,0.782,3.24,1.057
			c0.611,0.273,1.092,0.673,1.44,1.195s0.522,1.172,0.522,1.947c0,0.759-0.213,1.474-0.638,2.145
			c-0.426,0.67-1.04,1.189-1.842,1.555c-0.802,0.368-1.71,0.551-2.724,0.551c-1.677,0-2.955-0.362-3.834-1.088
			C319.475,121.11,318.914,120.035,318.671,118.609z"/>
	</g>
</g>
</svg>
