<svg width="344" height="136" viewBox="0 0 344 136" fill="none" xmlns="http://www.w3.org/2000/svg">
<path d="M344 0H0V136H344V0Z" fill="#0E4970"/>
<path d="M141.701 94.652V15.724H153.556V94.653H141.701V94.652Z" fill="#F6F6F6"/>
<path d="M165.706 94.652V26.185H177.561V94.653H165.706V94.652Z" fill="#F6F6F6"/>
<path d="M215.656 78.866L227.469 81.061C225.95 85.856 223.553 89.506 220.277 92.013C217 94.519 212.901 95.772 207.979 95.772C200.188 95.772 194.422 92.955 190.682 87.319C187.729 82.804 186.252 77.107 186.252 70.226C186.252 62.006 188.192 55.569 192.074 50.913C195.955 46.259 200.862 43.932 206.797 43.932C213.463 43.932 218.722 46.368 222.575 51.241C226.428 56.114 228.27 63.579 228.101 73.636H198.402C198.486 77.528 199.442 80.556 201.27 82.72C203.098 84.883 205.376 85.965 208.105 85.965C209.96 85.965 211.522 85.404 212.788 84.284C214.054 83.163 215.01 81.357 215.656 78.866ZM216.332 65.603C216.247 61.804 215.361 58.916 213.674 56.94C211.986 54.962 209.933 53.974 207.515 53.974C204.927 53.974 202.789 55.017 201.102 57.103C199.415 59.189 198.585 62.022 198.614 65.603H216.332Z" fill="#F6F6F6"/>
<path d="M232.573 45.053H239.154V41.317C239.154 37.145 239.554 34.032 240.356 31.977C241.158 29.921 242.634 28.248 244.786 26.956C246.937 25.664 249.659 25.018 252.949 25.018C256.324 25.018 259.629 25.579 262.863 26.7L261.26 35.853C259.375 35.355 257.561 35.106 255.818 35.106C254.102 35.106 252.872 35.549 252.127 36.437C251.382 37.325 251.009 39.029 251.009 41.551V45.053H259.868V55.375H251.009V94.652H239.155V55.375H232.574V45.053H232.573Z" fill="#F6F6F6"/>
<path d="M266.534 38.328V26.185H278.389V38.329H266.534V38.328ZM266.534 94.652V45.052H278.389V94.652H266.534Z" fill="#F6F6F6"/>
<path d="M299.398 60.185L288.64 58.038C289.849 53.243 291.931 49.693 294.884 47.39C297.837 45.085 302.225 43.934 308.046 43.934C313.334 43.934 317.271 44.626 319.859 46.012C322.447 47.398 324.268 49.157 325.323 51.289C326.378 53.421 326.905 57.337 326.905 63.035L326.778 78.353C326.778 82.712 326.968 85.926 327.347 87.998C327.727 90.068 328.437 92.287 329.478 94.653H317.75C317.44 93.781 317.061 92.489 316.611 90.776C316.414 89.998 316.273 89.484 316.189 89.235C314.164 91.415 311.998 93.049 309.692 94.139C307.385 95.229 304.925 95.773 302.309 95.773C297.697 95.773 294.062 94.388 291.404 91.617C288.746 88.846 287.418 85.344 287.418 81.109C287.418 78.306 288.022 75.808 289.231 73.613C290.44 71.418 292.135 69.736 294.315 68.569C296.494 67.401 299.637 66.381 303.744 65.509C309.284 64.358 313.124 63.283 315.262 62.287V60.978C315.262 58.457 314.699 56.659 313.574 55.584C312.448 54.51 310.325 53.973 307.203 53.973C305.094 53.973 303.449 54.432 302.267 55.351C301.086 56.27 300.13 57.881 299.398 60.185ZM314.418 38.981H306.95L295.306 25.017H308.595L314.418 38.981ZM315.262 70.833C313.742 71.394 311.338 72.063 308.047 72.842C304.757 73.62 302.606 74.383 301.593 75.13C300.046 76.345 299.273 77.886 299.273 79.754C299.273 81.591 299.891 83.179 301.129 84.518C302.366 85.857 303.941 86.526 305.854 86.526C307.991 86.526 310.031 85.748 311.971 84.191C313.406 83.008 314.347 81.56 314.797 79.847C315.107 78.727 315.262 76.594 315.262 73.45V70.833V70.833Z" fill="#F6F6F6"/>
<path d="M16.799 94.652V16.2H65.381V29.471H31.107V48.04H60.691V61.311H31.107V94.651H16.799V94.652Z" stroke="white"/>
<path d="M77.176 94.652V16.2H100.137C108.838 16.2 114.51 16.594 117.153 17.378C121.214 18.555 124.613 21.115 127.352 25.057C130.091 28.999 131.461 34.093 131.461 40.335C131.461 45.151 130.671 49.201 129.092 52.482C127.513 55.765 125.507 58.341 123.074 60.215C120.64 62.087 118.168 63.328 115.654 63.934C112.237 64.683 107.291 65.058 100.813 65.058H91.484V94.652H77.176V94.652ZM91.484 29.472V51.734H99.314C104.954 51.734 108.724 51.325 110.627 50.504C112.527 49.684 114.018 48.4 115.098 46.65C116.177 44.903 116.717 42.87 116.717 40.549C116.717 37.695 115.96 35.341 114.446 33.486C112.93 31.632 111.014 30.471 108.694 30.007C106.985 29.651 103.552 29.472 98.397 29.472H91.484V29.472Z" stroke="white"/>
<path d="M25.979 117.228L28.24 117.519C27.884 118.893 27.223 119.959 26.259 120.719C25.295 121.478 24.063 121.857 22.564 121.857C20.675 121.857 19.178 121.253 18.072 120.042C16.966 118.833 16.412 117.136 16.412 114.951C16.412 112.691 16.971 110.937 18.09 109.689C19.208 108.441 20.659 107.817 22.442 107.817C24.168 107.817 25.578 108.428 26.672 109.651C27.766 110.875 28.313 112.594 28.313 114.812C28.313 114.947 28.309 115.149 28.301 115.418H18.673C18.754 116.895 19.155 118.024 19.877 118.809C20.598 119.593 21.498 119.985 22.575 119.985C23.378 119.985 24.062 119.766 24.63 119.328C25.196 118.888 25.646 118.188 25.979 117.228ZM18.794 113.547H26.002C25.905 112.417 25.629 111.569 25.175 111.004C24.478 110.127 23.574 109.689 22.464 109.689C21.459 109.689 20.614 110.04 19.93 110.739C19.246 111.438 18.867 112.374 18.794 113.547Z" fill="white"/>
<path d="M30.987 121.553V108.12H32.956V110.03C33.904 108.553 35.274 107.816 37.065 107.816C37.843 107.816 38.558 107.962 39.211 108.252C39.863 108.544 40.352 108.926 40.676 109.398C41 109.87 41.227 110.431 41.357 111.081C41.438 111.502 41.479 112.24 41.479 113.294V121.554H39.29V113.383C39.29 112.456 39.205 111.762 39.035 111.303C38.865 110.843 38.563 110.476 38.129 110.201C37.695 109.928 37.187 109.791 36.604 109.791C35.672 109.791 34.868 110.099 34.191 110.714C33.514 111.33 33.176 112.497 33.176 114.218V121.554H30.987V121.553Z" fill="white"/>
<path d="M43.958 117.543L46.122 117.189C46.244 118.09 46.582 118.783 47.137 119.263C47.692 119.743 48.468 119.984 49.465 119.984C50.47 119.984 51.215 119.771 51.702 119.346C52.188 118.919 52.431 118.419 52.431 117.846C52.431 117.331 52.216 116.927 51.787 116.632C51.487 116.43 50.741 116.173 49.55 115.861C47.945 115.439 46.833 115.075 46.213 114.767C45.593 114.458 45.123 114.034 44.803 113.489C44.483 112.946 44.323 112.344 44.323 111.687C44.323 111.088 44.455 110.534 44.718 110.023C44.982 109.513 45.34 109.089 45.794 108.752C46.134 108.49 46.598 108.269 47.186 108.088C47.774 107.906 48.404 107.816 49.077 107.816C50.09 107.816 50.979 107.968 51.745 108.271C52.511 108.575 53.076 108.986 53.441 109.505C53.806 110.023 54.057 110.716 54.195 111.585L52.055 111.889C51.958 111.197 51.676 110.658 51.21 110.27C50.744 109.881 50.085 109.688 49.234 109.688C48.229 109.688 47.512 109.861 47.083 110.207C46.653 110.553 46.438 110.957 46.438 111.422C46.438 111.716 46.527 111.982 46.706 112.219C46.884 112.463 47.164 112.665 47.545 112.825C47.764 112.91 48.408 113.103 49.478 113.407C51.026 113.837 52.106 114.189 52.718 114.464C53.33 114.737 53.81 115.137 54.158 115.659C54.506 116.181 54.681 116.831 54.681 117.606C54.681 118.365 54.468 119.08 54.043 119.751C53.617 120.421 53.003 120.94 52.201 121.306C51.399 121.674 50.491 121.857 49.478 121.857C47.801 121.857 46.522 121.495 45.643 120.769C44.762 120.044 44.201 118.969 43.958 117.543Z" fill="white"/>
<path d="M66.119 117.228L68.38 117.519C68.024 118.893 67.363 119.959 66.399 120.719C65.435 121.478 64.203 121.857 62.704 121.857C60.815 121.857 59.318 121.253 58.212 120.042C57.106 118.833 56.552 117.136 56.552 114.951C56.552 112.691 57.111 110.937 58.23 109.689C59.348 108.441 60.799 107.817 62.582 107.817C64.308 107.817 65.718 108.428 66.812 109.651C67.906 110.875 68.453 112.594 68.453 114.812C68.453 114.947 68.449 115.149 68.441 115.418H58.813C58.894 116.895 59.295 118.024 60.017 118.809C60.738 119.593 61.638 119.985 62.715 119.985C63.518 119.985 64.202 119.766 64.77 119.328C65.336 118.888 65.787 118.188 66.119 117.228ZM58.935 113.547H66.143C66.046 112.417 65.77 111.569 65.316 111.004C64.619 110.127 63.715 109.689 62.605 109.689C61.6 109.689 60.755 110.04 60.071 110.739C59.386 111.438 59.007 112.374 58.935 113.547Z" fill="white"/>
<path d="M71.127 121.553V108.12H73.096V110.03C74.044 108.553 75.414 107.816 77.205 107.816C77.983 107.816 78.698 107.962 79.351 108.252C80.003 108.544 80.492 108.926 80.816 109.398C81.14 109.87 81.367 110.431 81.497 111.081C81.578 111.502 81.619 112.24 81.619 113.294V121.554H79.43V113.383C79.43 112.456 79.345 111.762 79.175 111.303C79.005 110.843 78.703 110.476 78.269 110.201C77.835 109.928 77.327 109.791 76.744 109.791C75.812 109.791 75.008 110.099 74.331 110.714C73.654 111.33 73.316 112.497 73.316 114.218V121.554H71.127V121.553Z" fill="white"/>
<path d="M84.876 126.727L84.633 124.589C85.111 124.724 85.529 124.791 85.885 124.791C86.371 124.791 86.76 124.707 87.052 124.538C87.344 124.37 87.583 124.134 87.769 123.83C87.907 123.602 88.129 123.037 88.437 122.135C88.478 122.009 88.542 121.822 88.632 121.578L83.733 108.12H86.091L88.778 115.899C89.127 116.885 89.439 117.922 89.714 119.01C89.965 117.964 90.265 116.945 90.614 115.948L93.373 108.119H95.561L90.65 121.78C90.123 123.256 89.714 124.271 89.422 124.828C89.033 125.578 88.587 126.129 88.085 126.479C87.583 126.829 86.983 127.003 86.286 127.003C85.865 127.005 85.395 126.912 84.876 126.727Z" fill="white"/>
<path d="M105.845 119.896C105.034 120.613 104.254 121.119 103.505 121.414C102.756 121.709 101.951 121.856 101.092 121.856C99.674 121.856 98.583 121.497 97.822 120.774C97.06 120.054 96.679 119.132 96.679 118.011C96.679 117.353 96.823 116.751 97.111 116.208C97.399 115.664 97.776 115.228 98.241 114.898C98.707 114.57 99.232 114.321 99.815 114.152C100.245 114.035 100.893 113.921 101.76 113.811C103.527 113.591 104.827 113.33 105.662 113.026C105.67 112.714 105.674 112.516 105.674 112.432C105.674 111.504 105.467 110.851 105.054 110.471C104.494 109.956 103.664 109.7 102.562 109.7C101.533 109.7 100.773 109.888 100.283 110.263C99.793 110.637 99.43 111.302 99.195 112.254L97.055 111.951C97.249 110.998 97.57 110.228 98.015 109.641C98.46 109.055 99.105 108.604 99.948 108.288C100.791 107.972 101.767 107.813 102.878 107.813C103.98 107.813 104.876 107.949 105.565 108.218C106.254 108.487 106.76 108.826 107.085 109.236C107.41 109.646 107.636 110.162 107.766 110.786C107.839 111.174 107.875 111.874 107.875 112.886V115.922C107.875 118.038 107.921 119.377 108.015 119.937C108.108 120.499 108.292 121.036 108.568 121.55H106.282C106.056 121.081 105.91 120.528 105.845 119.896ZM105.663 114.812C104.869 115.149 103.678 115.435 102.089 115.672C101.19 115.807 100.553 115.958 100.18 116.127C99.807 116.295 99.519 116.542 99.317 116.867C99.114 117.191 99.013 117.552 99.013 117.948C99.013 118.555 99.234 119.061 99.676 119.466C100.118 119.871 100.764 120.073 101.615 120.073C102.458 120.073 103.207 119.882 103.864 119.498C104.52 119.114 105.003 118.59 105.31 117.923C105.545 117.408 105.663 116.65 105.663 115.647V114.812V114.812Z" fill="white"/>
<path d="M111.267 121.553V108.12H113.224V110.005C113.629 109.347 114.168 108.817 114.841 108.418C115.514 108.017 116.279 107.816 117.139 107.816C118.095 107.816 118.879 108.022 119.491 108.436C120.103 108.849 120.534 109.426 120.786 110.168C121.807 108.6 123.136 107.815 124.773 107.815C126.054 107.815 127.038 108.184 127.727 108.922C128.416 109.659 128.76 110.796 128.76 112.33V121.551H126.584V113.089C126.584 112.179 126.513 111.523 126.371 111.123C126.229 110.722 125.972 110.398 125.599 110.154C125.226 109.91 124.789 109.788 124.286 109.788C123.378 109.788 122.624 110.101 122.025 110.729C121.425 111.358 121.126 112.364 121.126 113.747V121.551H118.938V112.823C118.938 111.811 118.76 111.052 118.403 110.547C118.046 110.041 117.463 109.788 116.653 109.788C116.037 109.788 115.468 109.956 114.945 110.294C114.422 110.631 114.043 111.125 113.808 111.773C113.573 112.422 113.455 113.358 113.455 114.582V121.551H111.267V121.553Z" fill="white"/>
<path d="M140.843 117.228L143.104 117.519C142.748 118.893 142.087 119.959 141.123 120.719C140.159 121.478 138.927 121.857 137.428 121.857C135.539 121.857 134.042 121.253 132.936 120.042C131.83 118.833 131.276 117.136 131.276 114.951C131.276 112.691 131.835 110.937 132.954 109.689C134.072 108.441 135.523 107.817 137.306 107.817C139.032 107.817 140.442 108.428 141.536 109.651C142.63 110.875 143.177 112.594 143.177 114.812C143.177 114.947 143.173 115.149 143.165 115.418H133.537C133.618 116.895 134.019 118.024 134.741 118.809C135.462 119.593 136.362 119.985 137.439 119.985C138.242 119.985 138.926 119.766 139.494 119.328C140.061 118.888 140.511 118.188 140.843 117.228ZM133.659 113.547H140.867C140.77 112.417 140.494 111.569 140.04 111.004C139.343 110.127 138.439 109.689 137.329 109.689C136.324 109.689 135.479 110.04 134.795 110.739C134.11 111.438 133.731 112.374 133.659 113.547Z" fill="white"/>
<path d="M145.852 121.553V108.12H147.821V110.03C148.769 108.553 150.139 107.816 151.93 107.816C152.708 107.816 153.423 107.962 154.076 108.252C154.728 108.544 155.217 108.926 155.541 109.398C155.865 109.87 156.092 110.431 156.222 111.081C156.303 111.502 156.344 112.24 156.344 113.294V121.554H154.156V113.383C154.156 112.456 154.071 111.762 153.901 111.303C153.731 110.843 153.429 110.476 152.995 110.201C152.561 109.928 152.053 109.791 151.47 109.791C150.538 109.791 149.734 110.099 149.057 110.714C148.38 111.33 148.042 112.497 148.042 114.218V121.554H145.852V121.553Z" fill="white"/>
<path d="M164.475 119.517L164.791 121.528C164.175 121.664 163.624 121.731 163.138 121.731C162.344 121.731 161.728 121.6 161.29 121.338C160.852 121.076 160.544 120.733 160.366 120.308C160.188 119.882 160.099 118.986 160.099 117.62V109.891H158.494V108.12H160.099V104.793L162.275 103.428V108.12H164.475V109.891H162.275V117.746C162.275 118.394 162.314 118.812 162.39 118.998C162.467 119.184 162.593 119.331 162.767 119.44C162.941 119.55 163.19 119.605 163.515 119.605C163.758 119.605 164.078 119.576 164.475 119.517Z" fill="white"/>
<path d="M165.739 117.543L167.903 117.189C168.025 118.09 168.363 118.783 168.918 119.263C169.473 119.743 170.249 119.984 171.246 119.984C172.251 119.984 172.996 119.771 173.483 119.346C173.969 118.919 174.212 118.419 174.212 117.846C174.212 117.331 173.997 116.927 173.568 116.632C173.267 116.43 172.522 116.173 171.331 115.861C169.726 115.439 168.614 115.075 167.994 114.767C167.374 114.458 166.904 114.034 166.584 113.489C166.264 112.946 166.104 112.344 166.104 111.687C166.104 111.088 166.236 110.534 166.499 110.023C166.763 109.513 167.121 109.089 167.575 108.752C167.915 108.49 168.379 108.269 168.967 108.088C169.555 107.906 170.185 107.816 170.858 107.816C171.871 107.816 172.76 107.968 173.526 108.271C174.292 108.575 174.856 108.986 175.221 109.505C175.586 110.023 175.837 110.716 175.975 111.585L173.835 111.889C173.738 111.197 173.456 110.658 172.99 110.27C172.524 109.881 171.865 109.688 171.014 109.688C170.009 109.688 169.292 109.861 168.863 110.207C168.433 110.553 168.218 110.957 168.218 111.422C168.218 111.716 168.307 111.982 168.486 112.219C168.664 112.463 168.944 112.665 169.325 112.825C169.544 112.91 170.188 113.103 171.258 113.407C172.806 113.837 173.886 114.189 174.498 114.464C175.109 114.737 175.59 115.137 175.937 115.659C176.287 116.181 176.46 116.831 176.46 117.606C176.46 118.365 176.247 119.08 175.821 119.751C175.395 120.421 174.782 120.94 173.979 121.306C173.177 121.674 172.27 121.857 171.256 121.857C169.579 121.857 168.3 121.495 167.421 120.769C166.543 120.044 165.982 118.969 165.739 117.543Z" fill="white"/>
<path d="M185.979 126.701V108.12H187.972V109.865C188.443 109.182 188.974 108.671 189.565 108.328C190.157 107.987 190.875 107.816 191.716 107.816C192.819 107.816 193.791 108.111 194.634 108.702C195.477 109.293 196.113 110.124 196.542 111.2C196.972 112.274 197.187 113.454 197.187 114.735C197.187 116.11 196.951 117.347 196.476 118.447C196.001 119.549 195.313 120.391 194.41 120.977C193.506 121.563 192.556 121.856 191.558 121.856C190.829 121.856 190.175 121.696 189.595 121.376C189.016 121.056 188.539 120.651 188.167 120.162V126.701H185.979V126.701ZM187.961 114.912C187.961 116.641 188.297 117.919 188.97 118.745C189.643 119.571 190.457 119.984 191.413 119.984C192.386 119.984 193.219 119.556 193.912 118.7C194.604 117.845 194.951 116.518 194.951 114.722C194.951 113.011 194.612 111.728 193.935 110.877C193.258 110.025 192.451 109.599 191.51 109.599C190.577 109.599 189.753 110.053 189.036 110.958C188.319 111.866 187.961 113.184 187.961 114.912Z" fill="white"/>
<path d="M199.801 121.553V108.12H201.77V110.156C202.273 109.204 202.737 108.575 203.163 108.271C203.589 107.968 204.057 107.816 204.567 107.816C205.304 107.816 206.053 108.06 206.815 108.549L206.062 110.661C205.527 110.333 204.993 110.168 204.458 110.168C203.979 110.168 203.55 110.318 203.169 110.618C202.788 110.916 202.517 111.332 202.355 111.863C202.112 112.673 201.99 113.557 201.99 114.519V121.551H199.801V121.553Z" fill="white"/>
<path d="M207.301 114.837C207.301 112.349 207.966 110.507 209.295 109.309C210.405 108.314 211.758 107.817 213.356 107.817C215.13 107.817 216.581 108.422 217.708 109.632C218.835 110.842 219.397 112.513 219.397 114.647C219.397 116.376 219.148 117.736 218.649 118.726C218.151 119.717 217.426 120.487 216.473 121.035C215.522 121.583 214.482 121.857 213.356 121.857C211.548 121.857 210.087 121.254 208.973 120.048C207.858 118.843 207.301 117.104 207.301 114.837ZM209.551 114.837C209.551 116.557 209.91 117.845 210.632 118.7C211.354 119.556 212.262 119.984 213.356 119.984C214.442 119.984 215.345 119.554 216.067 118.694C216.788 117.834 217.149 116.522 217.149 114.76C217.149 113.099 216.786 111.84 216.061 110.984C215.334 110.129 214.433 109.701 213.356 109.701C212.262 109.701 211.354 110.127 210.632 110.978C209.91 111.829 209.551 113.116 209.551 114.837Z" fill="white"/>
<path d="M222.484 121.553V109.891H220.551V108.12H222.484V106.69C222.484 105.789 222.561 105.118 222.715 104.679C222.925 104.088 223.296 103.611 223.827 103.242C224.357 102.877 225.1 102.692 226.057 102.692C226.672 102.692 227.354 102.768 228.099 102.921L227.771 104.906C227.317 104.821 226.887 104.78 226.483 104.78C225.818 104.78 225.348 104.927 225.073 105.222C224.798 105.517 224.659 106.07 224.659 106.879V108.118H227.176V109.889H224.659V121.551H222.484V121.553Z" fill="white"/>
<path d="M237.717 117.228L239.978 117.519C239.622 118.893 238.961 119.959 237.997 120.719C237.032 121.478 235.801 121.857 234.302 121.857C232.413 121.857 230.916 121.253 229.81 120.042C228.705 118.833 228.151 117.136 228.151 114.951C228.151 112.691 228.711 110.937 229.829 109.689C230.947 108.441 232.398 107.817 234.182 107.817C235.908 107.817 237.318 108.428 238.411 109.651C239.506 110.875 240.053 112.594 240.053 114.812C240.053 114.947 240.049 115.149 240.041 115.418H230.412C230.494 116.895 230.894 118.024 231.616 118.809C232.338 119.594 233.236 119.985 234.314 119.985C235.117 119.985 235.801 119.766 236.369 119.328C236.934 118.888 237.385 118.188 237.717 117.228ZM230.532 113.547H237.74C237.643 112.417 237.368 111.569 236.914 111.004C236.217 110.127 235.313 109.689 234.203 109.689C233.198 109.689 232.353 110.04 231.669 110.739C230.985 111.438 230.605 112.374 230.532 113.547Z" fill="white"/>
<path d="M241.85 117.543L244.014 117.189C244.135 118.09 244.473 118.783 245.029 119.263C245.584 119.743 246.36 119.984 247.356 119.984C248.362 119.984 249.107 119.771 249.593 119.346C250.079 118.919 250.322 118.419 250.322 117.846C250.322 117.331 250.107 116.927 249.677 116.632C249.377 116.43 248.632 116.173 247.441 115.861C245.836 115.439 244.724 115.075 244.104 114.767C243.484 114.458 243.013 114.034 242.694 113.489C242.374 112.946 242.214 112.344 242.214 111.687C242.214 111.088 242.346 110.534 242.61 110.023C242.874 109.513 243.231 109.089 243.686 108.752C244.026 108.49 244.49 108.269 245.077 108.088C245.665 107.906 246.296 107.816 246.968 107.816C247.982 107.816 248.87 107.968 249.636 108.271C250.403 108.575 250.968 108.986 251.332 109.505C251.696 110.023 251.948 110.716 252.086 111.585L249.946 111.889C249.848 111.197 249.567 110.658 249.101 110.27C248.635 109.881 247.977 109.688 247.125 109.688C246.12 109.688 245.402 109.861 244.974 110.207C244.544 110.553 244.329 110.957 244.329 111.422C244.329 111.716 244.418 111.982 244.597 112.219C244.776 112.463 245.055 112.665 245.436 112.825C245.655 112.91 246.299 113.103 247.369 113.407C248.917 113.837 249.997 114.189 250.608 114.464C251.22 114.737 251.7 115.137 252.049 115.659C252.397 116.181 252.571 116.831 252.571 117.606C252.571 118.365 252.358 119.08 251.933 119.751C251.507 120.421 250.893 120.94 250.091 121.306C249.288 121.674 248.38 121.857 247.367 121.857C245.69 121.857 244.411 121.495 243.532 120.769C242.653 120.044 242.092 118.969 241.85 117.543Z" fill="white"/>
<path d="M254.297 117.543L256.461 117.189C256.583 118.09 256.922 118.783 257.477 119.263C258.032 119.743 258.808 119.984 259.805 119.984C260.809 119.984 261.555 119.771 262.041 119.346C262.527 118.919 262.77 118.419 262.77 117.846C262.77 117.331 262.555 116.927 262.126 116.632C261.825 116.43 261.079 116.173 259.889 115.861C258.285 115.439 257.171 115.075 256.552 114.767C255.932 114.458 255.462 114.034 255.142 113.489C254.822 112.946 254.662 112.344 254.662 111.687C254.662 111.088 254.794 110.534 255.057 110.023C255.321 109.513 255.68 109.089 256.133 108.752C256.474 108.49 256.938 108.269 257.526 108.088C258.114 107.906 258.743 107.816 259.417 107.816C260.429 107.816 261.319 107.968 262.085 108.271C262.851 108.575 263.415 108.986 263.78 109.505C264.145 110.023 264.396 110.716 264.534 111.585L262.394 111.889C262.297 111.197 262.015 110.658 261.549 110.27C261.082 109.881 260.424 109.688 259.573 109.688C258.568 109.688 257.851 109.861 257.422 110.207C256.993 110.553 256.777 110.957 256.777 111.422C256.777 111.716 256.867 111.982 257.045 112.219C257.223 112.463 257.502 112.665 257.884 112.825C258.103 112.91 258.746 113.103 259.817 113.407C261.365 113.837 262.445 114.189 263.057 114.464C263.668 114.737 264.149 115.137 264.496 115.659C264.846 116.181 265.019 116.831 265.019 117.606C265.019 118.365 264.806 119.08 264.38 119.751C263.954 120.421 263.341 120.94 262.538 121.306C261.736 121.674 260.829 121.857 259.815 121.857C258.137 121.857 256.859 121.495 255.98 120.769C255.102 120.044 254.541 118.969 254.297 117.543Z" fill="white"/>
<path d="M267.633 105.628V103.01H269.821V105.628H267.633ZM267.633 121.553V108.12H269.821V121.553H267.633Z" fill="white"/>
<path d="M272.338 114.837C272.338 112.349 273.002 110.507 274.331 109.309C275.441 108.314 276.795 107.817 278.391 107.817C280.166 107.817 281.618 108.422 282.744 109.632C283.87 110.842 284.433 112.513 284.433 114.647C284.433 116.376 284.184 117.736 283.686 118.726C283.188 119.717 282.461 120.487 281.51 121.035C280.557 121.583 279.518 121.857 278.391 121.857C276.584 121.857 275.123 121.254 274.009 120.048C272.895 118.843 272.338 117.104 272.338 114.837ZM274.586 114.837C274.586 116.557 274.947 117.845 275.668 118.7C276.389 119.556 277.297 119.984 278.391 119.984C279.477 119.984 280.381 119.554 281.102 118.694C281.824 117.834 282.184 116.522 282.184 114.76C282.184 113.099 281.822 111.84 281.096 110.984C280.371 110.129 279.469 109.701 278.391 109.701C277.297 109.701 276.389 110.127 275.668 110.978C274.947 111.829 274.586 113.116 274.586 114.837Z" fill="white"/>
<path d="M286.998 121.553V108.12H288.967V110.03C289.916 108.553 291.285 107.816 293.076 107.816C293.853 107.816 294.569 107.962 295.222 108.252C295.874 108.544 296.363 108.926 296.687 109.398C297.011 109.87 297.239 110.431 297.368 111.081C297.449 111.502 297.489 112.24 297.489 113.294V121.554H295.301V113.383C295.301 112.456 295.216 111.762 295.045 111.303C294.875 110.843 294.573 110.476 294.14 110.201C293.706 109.928 293.198 109.791 292.615 109.791C291.682 109.791 290.879 110.099 290.202 110.714C289.525 111.33 289.186 112.497 289.186 114.218V121.554H286.998V121.553Z" fill="white"/>
<path d="M309.268 119.896C308.457 120.613 307.678 121.119 306.928 121.414C306.178 121.709 305.374 121.856 304.516 121.856C303.097 121.856 302.006 121.497 301.245 120.774C300.482 120.054 300.101 119.132 300.101 118.011C300.101 117.353 300.246 116.751 300.533 116.208C300.821 115.664 301.198 115.228 301.664 114.898C302.131 114.57 302.654 114.321 303.238 114.152C303.668 114.035 304.316 113.921 305.183 113.811C306.95 113.591 308.25 113.33 309.085 113.026C309.093 112.714 309.097 112.516 309.097 112.432C309.097 111.504 308.89 110.851 308.478 110.471C307.917 109.956 307.087 109.7 305.986 109.7C304.957 109.7 304.197 109.888 303.707 110.263C303.217 110.637 302.853 111.302 302.619 112.254L300.478 111.951C300.673 110.998 300.994 110.228 301.439 109.641C301.884 109.055 302.529 108.604 303.372 108.288C304.215 107.972 305.191 107.813 306.302 107.813C307.405 107.813 308.299 107.949 308.989 108.218C309.679 108.487 310.184 108.826 310.509 109.236C310.834 109.646 311.06 110.162 311.191 110.786C311.263 111.174 311.3 111.874 311.3 112.886V115.922C311.3 118.038 311.346 119.377 311.439 119.937C311.533 120.499 311.716 121.036 311.993 121.55H309.707C309.479 121.081 309.333 120.528 309.268 119.896ZM309.086 114.812C308.291 115.149 307.1 115.435 305.512 115.672C304.613 115.807 303.977 115.958 303.604 116.127C303.231 116.295 302.943 116.542 302.741 116.867C302.538 117.191 302.436 117.552 302.436 117.948C302.436 118.555 302.657 119.061 303.099 119.466C303.541 119.871 304.187 120.073 305.037 120.073C305.881 120.073 306.63 119.882 307.287 119.498C307.943 119.114 308.426 118.59 308.732 117.923C308.968 117.408 309.086 116.65 309.086 115.647V114.812V114.812Z" fill="white"/>
<path d="M314.641 121.553V103.01H316.83V121.553H314.641Z" fill="white"/>
<path d="M319.346 117.543L321.51 117.189C321.631 118.09 321.97 118.783 322.526 119.263C323.081 119.743 323.856 119.984 324.853 119.984C325.858 119.984 326.604 119.771 327.09 119.346C327.576 118.919 327.819 118.419 327.819 117.846C327.819 117.331 327.604 116.927 327.175 116.632C326.875 116.43 326.129 116.173 324.938 115.861C323.334 115.439 322.221 115.075 321.602 114.767C320.981 114.458 320.511 114.034 320.192 113.489C319.872 112.946 319.712 112.344 319.712 111.687C319.712 111.088 319.843 110.534 320.107 110.023C320.371 109.513 320.729 109.089 321.183 108.752C321.523 108.49 321.988 108.269 322.575 108.088C323.163 107.906 323.793 107.816 324.466 107.816C325.479 107.816 326.368 107.968 327.134 108.271C327.901 108.575 328.465 108.986 328.83 109.505C329.194 110.023 329.445 110.716 329.584 111.585L327.443 111.889C327.346 111.197 327.064 110.658 326.599 110.27C326.132 109.881 325.474 109.688 324.622 109.688C323.618 109.688 322.9 109.861 322.472 110.207C322.042 110.553 321.827 110.957 321.827 111.422C321.827 111.716 321.916 111.982 322.095 112.219C322.273 112.463 322.552 112.665 322.933 112.825C323.152 112.91 323.796 113.103 324.867 113.407C326.414 113.837 327.494 114.189 328.106 114.464C328.718 114.737 329.198 115.137 329.546 115.659C329.894 116.181 330.069 116.831 330.069 117.606C330.069 118.365 329.856 119.08 329.43 119.751C329.004 120.421 328.391 120.94 327.588 121.306C326.785 121.674 325.878 121.857 324.865 121.857C323.187 121.857 321.908 121.495 321.029 120.769C320.15 120.044 319.589 118.969 319.346 117.543Z" fill="white"/>
</svg>
